<svg xmlns="http://www.w3.org/2000/svg" viewBox="0 0 100 100">
  <path d="M33.333 33.333c0 5.521-4.479 10-10 10-5.52 0-10-4.479-10-10 0-5.52 4.48-10 10-10 5.521 0 10 4.48 10 10zm53.334 20v23.334H13.333v-10L30 50l8.333 8.333L65 31.667l21.667 21.666zm5-36.666H8.333c-.885 0-1.666.78-1.666 1.666v63.334c0 .885.78 1.666 1.666 1.666h83.334c.885 0 1.666-.78 1.666-1.666V18.333c0-.885-.78-1.666-1.666-1.666zM100 18.333v63.334C100 86.25 96.25 90 91.667 90H8.333C3.75 90 0 86.25 0 81.667V18.333C0 13.75 3.75 10 8.333 10h83.334C96.25 10 100 13.75 100 18.333z"/>
</svg>
