<svg xmlns="http://www.w3.org/2000/svg" viewBox="0 0 100 100">
  <path fill-rule="evenodd" d="M58.333 27.083V56.25a2.057 2.057 0 0 1-2.083 2.083H35.417a2.057 2.057 0 0 1-2.084-2.083v-4.167c0-1.172.912-2.083 2.084-2.083H50V27.083c0-1.172.911-2.083 2.083-2.083h4.167c1.172 0 2.083.911 2.083 2.083zM85.417 50c0-19.531-15.886-35.417-35.417-35.417-19.531 0-35.417 15.886-35.417 35.417 0 19.531 15.886 35.417 35.417 35.417 19.531 0 35.417-15.886 35.417-35.417zM100 50c0 27.604-22.396 50-50 50S0 77.604 0 50 22.396 0 50 0s50 22.396 50 50z"/>
</svg>
