<svg xmlns="http://www.w3.org/2000/svg" viewBox="0 0 100 100">
  <path fill-rule="evenodd" d="M69.23 42.308c0-14.844-12.079-26.923-26.922-26.923-14.844 0-26.923 12.079-26.923 26.923 0 14.843 12.079 26.923 26.923 26.923 14.843 0 26.923-12.08 26.923-26.923zm30.77 50c0 4.206-3.486 7.692-7.692 7.692-2.044 0-4.027-.841-5.409-2.284L66.286 77.163c-7.031 4.868-15.445 7.452-23.978 7.452C18.93 84.615 0 65.685 0 42.308 0 18.93 18.93 0 42.308 0c23.377 0 42.307 18.93 42.307 42.308 0 8.533-2.584 16.947-7.452 23.978L97.776 86.9C99.16 88.281 100 90.264 100 92.308z"/>
</svg>
