<svg xmlns="http://www.w3.org/2000/svg" fill-rule="evenodd" stroke-linejoin="round" stroke-miterlimit="1.414" clip-rule="evenodd" viewBox="0 0 74 67">
  <path fill-rule="nonzero" d="M43.927 47.274v.397c-.288 3.311-3.104 5.878-6.428 5.858h-1.5c-3.299.002-6.089-2.542-6.39-5.828v-.397a3.18 3.18 0 0 1 2.775-3.435c2.92-.35 5.871-.35 8.79 0a3.179 3.179 0 0 1 2.753 3.405zM71.182 3.189c1.5 3.247 3.615 9.585 1.282 15.637a15.427 15.427 0 0 1-7.102 7.89c1.32 6.788 2.887 16.748-1.613 25.238a87.086 87.086 0 0 0-8.587 3 16.005 16.005 0 0 1-3.323 5.94 17.034 17.034 0 0 1-12.75 5.67h-4.687a17.034 17.034 0 0 1-12.75-5.67 15.978 15.978 0 0 1-3.33-5.94 86.924 86.924 0 0 0-8.573-3c-4.5-8.49-2.925-18.45-1.605-25.238a15.437 15.437 0 0 1-7.11-7.897c-2.332-6.045-.195-12.39 1.283-15.63C3.465.63 6.43-.625 9.067.331c3 1.073 6.36 3.555 8.505 5.31a43.646 43.646 0 0 1 19.177-4.462 43.643 43.643 0 0 1 19.17 4.455c2.145-1.755 5.505-4.238 8.498-5.31 2.642-.965 5.619.295 6.765 2.865zM25.094 28.981c2.275 0 4.148-1.872 4.148-4.147 0-2.275-1.873-4.148-4.148-4.148-2.275 0-4.147 1.873-4.147 4.148 0 2.275 1.872 4.147 4.147 4.147zm23.61 20.378-.975-7.965a10.298 10.298 0 0 0-4.965-7.5 11.675 11.675 0 0 0-12 0 10.298 10.298 0 0 0-4.965 7.5l-1.005 7.965a8.589 8.589 0 0 0 2.16 6.802 9.912 9.912 0 0 0 7.44 3.278h4.695a9.912 9.912 0 0 0 7.44-3.278 8.591 8.591 0 0 0 2.175-6.802zm3.855-24.533c0-2.275-1.872-4.147-4.147-4.147-2.276 0-4.148 1.872-4.148 4.147 0 2.276 1.872 4.148 4.148 4.148 2.269-.004 4.136-1.871 4.14-4.14l.007-.008z"/>
</svg>
