<svg xmlns="http://www.w3.org/2000/svg" viewBox="0 0 100 100">
  <path fill-rule="evenodd" d="M66.667 81.25V70.833a2.057 2.057 0 0 0-2.084-2.083h-6.25V35.417a2.057 2.057 0 0 0-2.083-2.084H35.417a2.057 2.057 0 0 0-2.084 2.084v10.416c0 1.172.912 2.084 2.084 2.084h6.25V68.75h-6.25a2.057 2.057 0 0 0-2.084 2.083V81.25c0 1.172.912 2.083 2.084 2.083h29.166a2.057 2.057 0 0 0 2.084-2.083zm-8.334-58.333V12.5a2.057 2.057 0 0 0-2.083-2.083h-12.5a2.057 2.057 0 0 0-2.083 2.083v10.417c0 1.172.911 2.083 2.083 2.083h12.5a2.057 2.057 0 0 0 2.083-2.083zM100 50c0 27.604-22.396 50-50 50S0 77.604 0 50 22.396 0 50 0s50 22.396 50 50z"/>
</svg>
