<?xml version="1.0" encoding="utf-8"?>
<!-- Generator: Adobe Illustrator 17.0.0, SVG Export Plug-In . SVG Version: 6.00 Build 0)  -->
<!DOCTYPE svg PUBLIC "-//W3C//DTD SVG 1.1//EN" "http://www.w3.org/Graphics/SVG/1.1/DTD/svg11.dtd">
<svg version="1.1" id="Ebene_1" xmlns="http://www.w3.org/2000/svg" xmlns:xlink="http://www.w3.org/1999/xlink" x="0px" y="0px"
	 width="100px" height="98.324px" viewBox="0 0 100 98.324" enable-background="new 0 0 100 98.324" xml:space="preserve">
<path fill="#28323E" d="M99.754,0.013c-4.326-0.002-8.651-0.003-12.977-0.001c-0.114,0-0.251,0.003-0.34,0.062
	c-0.676,0.445-1.344,0.904-2.021,1.363c0.487,0.735,0.941,1.42,1.408,2.125c-0.732,0.51-1.405,0.979-2.089,1.456
	c0.483,0.725,0.931,1.398,1.404,2.109c-0.704,0.49-1.391,0.967-2.092,1.454c0.488,0.735,0.942,1.419,1.402,2.111
	c-0.729,0.507-1.403,0.975-2.087,1.451c0.486,0.731,0.933,1.403,1.403,2.111c-0.712,0.492-1.39,0.959-2.092,1.444
	c0.477,0.715,0.932,1.398,1.41,2.115c-0.715,0.493-1.391,0.96-2.097,1.446c0.481,0.724,0.935,1.409,1.403,2.114
	c-0.705,0.491-1.38,0.962-2.082,1.451c0.481,0.725,0.934,1.409,1.401,2.114c-0.721,0.495-1.399,0.96-2.097,1.439
	c0.485,0.731,0.939,1.415,1.405,2.116c-0.721,0.5-1.398,0.969-2.086,1.446c0.484,0.73,0.938,1.414,1.4,2.111
	c-0.71,0.492-1.374,0.952-2.081,1.443c0.477,0.719,0.931,1.406,1.397,2.109c-0.699,0.486-1.387,0.964-2.087,1.446
	c0.49,0.738,0.937,1.412,1.397,2.105c-0.706,0.491-1.381,0.96-2.079,1.445c0.473,0.721,0.922,1.408,1.388,2.118
	c-0.708,0.487-1.376,0.947-2.078,1.43c0.471,0.712,0.931,1.41,1.397,2.115c-0.718,0.494-1.385,0.955-2.079,1.434
	c0.469,0.719,0.919,1.409,1.385,2.122c-0.705,0.489-1.371,0.95-2.073,1.437c0.469,0.713,0.921,1.399,1.395,2.119
	c-0.707,0.486-1.386,0.954-2.088,1.436c0.471,0.711,0.926,1.397,1.402,2.114c-0.717,0.5-1.394,0.971-2.079,1.447
	c0.468,0.71,0.921,1.398,1.391,2.112c-0.716,0.497-1.392,0.967-2.067,1.436c0.474,0.722,0.924,1.407,1.396,2.126
	c-0.711,0.493-1.374,0.953-2.069,1.434c0.47,0.729,0.913,1.417,1.364,2.117c-0.726,0.507-1.399,0.976-2.071,1.445
	c0.478,0.722,0.924,1.395,1.395,2.105c-0.719,0.499-1.396,0.968-2.09,1.449c0.35,0.517,0.68,1.003,1.022,1.507
	c0.351-0.352,0.671-0.675,0.993-0.996c2.976-2.966,5.958-5.926,8.921-8.905c0.29-0.291,0.564-0.409,0.968-0.408
	c5.581,0.012,11.162,0.009,16.743,0.007c0.211,0,0.422-0.021,0.633-0.032c0-21.279,0-42.493,0-63.723
	C99.883,0.031,99.818,0.013,99.754,0.013z"/>
<path fill="#28323E" d="M29.516,71.908c-0.14-4.754-0.661-9.461-1.789-14.092c-0.801-3.287-1.866-6.472-3.494-9.453
	c-0.13-0.238-0.189-0.545-0.19-0.82c-0.014-2.765-0.012-5.53-0.009-8.295c0.001-1.094-0.336-2.051-1.053-2.892
	c-0.186-0.218-0.313-0.562-0.314-0.849c-0.019-4.156-0.013-8.312-0.015-12.468c0-0.219,0.008-0.447-0.044-0.657
	c-0.616-2.46-1.242-4.918-1.867-7.376c-1.014-3.984-2.028-7.968-3.043-11.952c-0.258-1.012-0.519-2.023-0.773-3.012
	c-0.176,0-0.338,0-0.505,0V0h-3.407c-0.324-0.023-0.444,0.115-0.511,0.411c-0.168,0.742-0.363,1.479-0.55,2.217
	C10.498,8.37,9.032,14.11,7.595,19.857c-0.29,1.16-0.653,2.342-0.677,3.52c-0.084,4.053-0.03,8.109-0.039,12.163
	c-0.001,0.22-0.031,0.505-0.166,0.649c-0.862,0.921-1.202,1.997-1.187,3.249c0.032,2.712,0.012,5.425,0.004,8.137
	c-0.001,0.211-0.029,0.451-0.129,0.63c-1.623,2.888-2.683,5.993-3.489,9.187c-1.128,4.47-1.674,9.029-1.856,13.627
	c-0.181,4.584,0.044,9.153,0.699,13.699c0.506,3.512,1.291,6.955,2.451,10.311c0.429,1.24,1.045,2.317,2.295,2.895
	c1.506,0.696,3.259,0.431,4.459-0.667c1.189-1.088,1.617-2.815,1.031-4.388c-0.775-2.083-1.361-4.217-1.789-6.393
	c-0.6-3.047-0.952-6.125-1.07-9.23c-0.25-6.557,0.165-13.045,1.99-19.388c0.72-2.502,1.68-4.898,3.134-7.079h3.024
	c1.154,1.73,2.01,3.601,2.674,5.567c1.365,4.041,2.029,8.216,2.358,12.45c0.263,3.385,0.326,6.779,0.002,10.16
	c-0.239,2.493-0.58,4.98-0.981,7.452c-0.366,2.258-1.037,4.443-1.835,6.592c-0.747,2.01,0.384,4.318,2.406,5.062
	c2.066,0.761,4.367-0.261,5.151-2.302c1.164-3.03,1.936-6.168,2.479-9.362C29.349,81.603,29.66,76.769,29.516,71.908z M12.888,22.59
	c-0.019-1.628-0.015-3.257-0.002-4.885c0.007-0.816,0.378-1.416,1.133-1.782c0.072-0.035,0.143-0.115,0.196-0.206h1.096
	c0.055,0.084,0.126,0.16,0.199,0.196c0.786,0.384,1.158,1.005,1.157,1.87c-0.002,1.595,0.007,3.189-0.005,4.784
	c-0.008,1.091-0.837,1.937-1.876,1.948C13.762,24.525,12.901,23.676,12.888,22.59z"/>
<path fill="#28323E" d="M73.625,12.95c-0.001-0.156-0.149-0.362-0.288-0.46c-0.955-0.673-1.95-1.293-2.888-1.988
	c-2.89-2.142-5.419-4.656-7.641-7.484c-0.14-0.177-0.44-0.313-0.67-0.319c-1.185-0.031-2.371-0.021-3.556-0.007
	c-0.303,0.004-0.467-0.086-0.629-0.368c-0.851-1.481-2.138-2.288-3.862-2.304c-2.103-0.02-4.207-0.029-6.31,0.002
	c-1.659,0.024-2.911,0.816-3.742,2.237c-0.191,0.327-0.378,0.434-0.745,0.433C38.529,2.679,33.765,2.684,29,2.684
	c-0.214,0-0.428,0-0.643,0c0,6.68,0,13.283,0,19.937c5.04,0,10.033,0,15.08,0c0,21.672,0,43.304,0,64.938c0,3.039,0,6.078,0,9.117
	v1.638h15.1v-1.638c0-3.04,0-6.078,0-9.117c0-21.648,0-43.284,0-64.957c5.054,0,10.049,0,15.058,0
	c0.019-0.112,0.039-0.176,0.04-0.238C73.637,19.226,73.641,16.088,73.625,12.95z"/>
<path fill="#28323E" d="M99.98,66.074c-0.243,0-0.428,0-0.615,0c-4.801,0-9.602,0.053-14.401-0.033
	c-1.429-0.025-2.417,0.362-3.429,1.41c-3.918,4.059-7.956,8.003-11.939,11.999c-0.136,0.137-0.243,0.374-0.243,0.565
	c-0.013,4.937-0.019,9.873-0.003,14.809c0.005,1.508,0.979,2.817,2.364,3.294c0.642,0.221,1.302,0.252,1.923,0.124v0.072h22.712l0,0
	c1.918,0.052,3.649-1.473,3.651-3.638c0.007-9.364,0.003-18.727,0.002-28.091C100.002,66.436,99.99,66.286,99.98,66.074z
	 M76.873,82.251c2.122-2.093,4.222-4.208,6.329-6.316c0.863-0.862,1.725-1.725,2.596-2.579c0.086-0.084,0.23-0.154,0.348-0.154
	c2.188-0.005,4.376,0.001,6.564,0.007c0.03,0,0.059,0.026,0.133,0.062c0,5.383,0,12.442,0,17.899c-5.449,0-10.881,0-16.359,0
	c0-0.83,0-3.281,0-4.075c0-1.307,0.013-2.613-0.007-3.919C76.471,82.788,76.593,82.527,76.873,82.251z"/>
</svg>
