<svg xmlns="http://www.w3.org/2000/svg" viewBox="0 0 75 75" stroke-linejoin="round" stroke-miterlimit="1.414">
  <circle cx="37.5" cy="37.5" r="37.5" fill="#185391"/>
  <g fill="#fff">
    <path d="M42.497 31.528v-6.819l2.584-10.285h2.25l2.583 10.285v6.819h.788v5.696c.736 1.373 1.223 2.837 1.59 4.347.53 2.176.775 4.387.841 6.621A34.417 34.417 0 0 1 52.672 55c-.256 1.501-.618 2.976-1.165 4.399a1.89 1.89 0 0 1-2.42 1.082c-.951-.35-1.482-1.434-1.131-2.379.375-1.009.69-2.036.862-3.097.189-1.161.349-2.33.461-3.501.152-1.589.123-3.184-.001-4.774-.154-1.99-.466-3.951-1.108-5.85-.312-.924-.714-1.803-1.256-2.616h-1.421c-.683 1.025-1.134 2.151-1.473 3.326-.857 2.981-1.052 6.029-.935 9.11a27.96 27.96 0 0 0 .503 4.337c.201 1.022.477 2.025.841 3.004a1.893 1.893 0 0 1-.485 2.062 1.91 1.91 0 0 1-2.095.313c-.587-.271-.877-.778-1.078-1.36a26.257 26.257 0 0 1-1.152-4.845 35.273 35.273 0 0 1-.328-6.437c.085-2.16.342-4.302.872-6.403.363-1.439.836-2.839 1.546-4.149v-5.694h.788zm2.821-8.881v2.382a.888.888 0 0 0 1.775 0v-2.382a.887.887 0 0 0-1.775 0zm-8.179 3.526h.79l-6.62 34.426h-7.202V30.736h8.474l3.791-3.795.767-.768z"/>
    <path d="M32.097 29.568h-7.99V15.005a.58.58 0 0 1 .581-.581H37.93a.582.582 0 0 1 .581.581v8.141l-6.414 6.422zm-1.42-3.426 4.408-4.414V17.85h-7.552v8.292h3.144z"/>
  </g>
</svg>
